<mxfile host="app.diagrams.net" agent="Mozilla/5.0 (Windows NT 10.0; Win64; x64) AppleWebKit/537.36 (KHTML, like Gecko) Chrome/140.0.0.0 Safari/537.36" version="28.2.5">
  <diagram name="Сторінка-1" id="aHYt0ayRGHpsiqJvXCMx">
    <mxGraphModel dx="81" dy="41" grid="1" gridSize="10" guides="1" tooltips="1" connect="1" arrows="1" fold="1" page="1" pageScale="1" pageWidth="827" pageHeight="1169" math="0" shadow="0">
      <root>
        <mxCell id="0" />
        <mxCell id="1" parent="0" />
        <mxCell id="5c4oNbQx3Qy8F3v5Axec-1" value="" style="shape=ellipse;html=1;fillColor=strokeColor;fontSize=18;fontColor=#ffffff;" parent="1" vertex="1">
          <mxGeometry x="346" y="25" width="30" height="30" as="geometry" />
        </mxCell>
        <mxCell id="5c4oNbQx3Qy8F3v5Axec-3" value="" style="fontStyle=1;align=center;verticalAlign=middle;childLayout=stackLayout;horizontal=1;horizontalStack=0;resizeParent=1;resizeParentMax=0;resizeLast=0;marginBottom=0;rounded=1;absoluteArcSize=1;arcSize=22;" parent="1" vertex="1">
          <mxGeometry x="350" y="110" width="200" height="100" as="geometry" />
        </mxCell>
        <mxCell id="5c4oNbQx3Qy8F3v5Axec-4" value="Initialization" style="html=1;align=center;spacing=0;verticalAlign=middle;strokeColor=none;fillColor=none;whiteSpace=wrap;" parent="5c4oNbQx3Qy8F3v5Axec-3" vertex="1">
          <mxGeometry width="200" height="20" as="geometry" />
        </mxCell>
        <mxCell id="5c4oNbQx3Qy8F3v5Axec-5" value="" style="line;strokeWidth=0.25;fillColor=none;align=left;verticalAlign=middle;spacingTop=-1;spacingLeft=3;spacingRight=3;rotatable=0;labelPosition=right;points=[];portConstraint=eastwest;" parent="5c4oNbQx3Qy8F3v5Axec-3" vertex="1">
          <mxGeometry y="20" width="200" height="8" as="geometry" />
        </mxCell>
        <mxCell id="5c4oNbQx3Qy8F3v5Axec-6" value="" style="html=1;align=left;spacing=0;spacingLeft=10;verticalAlign=middle;strokeColor=none;fillColor=none;whiteSpace=wrap;" parent="5c4oNbQx3Qy8F3v5Axec-3" vertex="1">
          <mxGeometry y="28" width="200" height="10" as="geometry" />
        </mxCell>
        <mxCell id="5c4oNbQx3Qy8F3v5Axec-7" value="entry / Get email, password" style="html=1;align=left;spacing=0;spacingLeft=10;verticalAlign=middle;strokeColor=none;fillColor=none;whiteSpace=wrap;" parent="5c4oNbQx3Qy8F3v5Axec-3" vertex="1">
          <mxGeometry y="38" width="200" height="14" as="geometry" />
        </mxCell>
        <mxCell id="5c4oNbQx3Qy8F3v5Axec-8" value="do / Check email" style="html=1;align=left;spacing=0;spacingLeft=10;verticalAlign=middle;strokeColor=none;fillColor=none;whiteSpace=wrap;" parent="5c4oNbQx3Qy8F3v5Axec-3" vertex="1">
          <mxGeometry y="52" width="200" height="14" as="geometry" />
        </mxCell>
        <mxCell id="5c4oNbQx3Qy8F3v5Axec-9" value="exit / Return the created card&amp;nbsp;" style="html=1;align=left;spacingLeft=10;spacing=0;verticalAlign=middle;strokeColor=none;fillColor=none;whiteSpace=wrap;" parent="5c4oNbQx3Qy8F3v5Axec-3" vertex="1">
          <mxGeometry y="66" width="200" height="14" as="geometry" />
        </mxCell>
        <mxCell id="5c4oNbQx3Qy8F3v5Axec-10" value="" style="html=1;align=left;spacing=0;spacingLeft=10;verticalAlign=middle;strokeColor=none;fillColor=none;whiteSpace=wrap;" parent="5c4oNbQx3Qy8F3v5Axec-3" vertex="1">
          <mxGeometry y="80" width="200" height="20" as="geometry" />
        </mxCell>
        <mxCell id="5c4oNbQx3Qy8F3v5Axec-11" value="Integration with the service" style="shape=rect;rounded=1;html=1;whiteSpace=wrap;align=center;" parent="1" vertex="1">
          <mxGeometry x="230" y="140" width="100" height="40" as="geometry" />
        </mxCell>
        <mxCell id="5c4oNbQx3Qy8F3v5Axec-12" value="" style="endArrow=none;html=1;rounded=0;" parent="1" edge="1">
          <mxGeometry width="50" height="50" relative="1" as="geometry">
            <mxPoint x="280" y="40" as="sourcePoint" />
            <mxPoint x="346" y="40" as="targetPoint" />
          </mxGeometry>
        </mxCell>
        <mxCell id="5c4oNbQx3Qy8F3v5Axec-15" value="" style="endArrow=open;endFill=1;endSize=12;html=1;rounded=0;" parent="1" edge="1">
          <mxGeometry width="160" relative="1" as="geometry">
            <mxPoint x="280" y="40" as="sourcePoint" />
            <mxPoint x="280" y="140" as="targetPoint" />
          </mxGeometry>
        </mxCell>
        <mxCell id="5c4oNbQx3Qy8F3v5Axec-16" value="&lt;font style=&quot;vertical-align: inherit;&quot; dir=&quot;auto&quot;&gt;User has recovered&lt;/font&gt;&lt;div&gt;&lt;font style=&quot;vertical-align: inherit;&quot; dir=&quot;auto&quot;&gt;integration&lt;/font&gt;&lt;/div&gt;" style="edgeLabel;html=1;align=center;verticalAlign=middle;resizable=0;points=[];" parent="5c4oNbQx3Qy8F3v5Axec-15" vertex="1" connectable="0">
          <mxGeometry x="-0.2347" y="2" relative="1" as="geometry">
            <mxPoint as="offset" />
          </mxGeometry>
        </mxCell>
        <mxCell id="5c4oNbQx3Qy8F3v5Axec-18" value="" style="endArrow=none;html=1;rounded=0;" parent="1" edge="1">
          <mxGeometry width="50" height="50" relative="1" as="geometry">
            <mxPoint x="290" y="40" as="sourcePoint" />
            <mxPoint x="356" y="40" as="targetPoint" />
          </mxGeometry>
        </mxCell>
        <mxCell id="5c4oNbQx3Qy8F3v5Axec-19" value="" style="endArrow=none;html=1;rounded=0;" parent="1" edge="1">
          <mxGeometry width="50" height="50" relative="1" as="geometry">
            <mxPoint x="376" y="39.71" as="sourcePoint" />
            <mxPoint x="442" y="39.71" as="targetPoint" />
          </mxGeometry>
        </mxCell>
        <mxCell id="5c4oNbQx3Qy8F3v5Axec-20" value="" style="endArrow=open;endFill=1;endSize=12;html=1;rounded=0;" parent="1" edge="1">
          <mxGeometry width="160" relative="1" as="geometry">
            <mxPoint x="442" y="40" as="sourcePoint" />
            <mxPoint x="442" y="110" as="targetPoint" />
          </mxGeometry>
        </mxCell>
        <mxCell id="5c4oNbQx3Qy8F3v5Axec-21" value="&lt;font style=&quot;vertical-align: inherit;&quot; dir=&quot;auto&quot;&gt;User selected&amp;nbsp;&lt;/font&gt;&lt;div&gt;&lt;font style=&quot;vertical-align: inherit;&quot; dir=&quot;auto&quot;&gt;creation&lt;/font&gt;&lt;/div&gt;&lt;div&gt;&lt;font style=&quot;vertical-align: inherit;&quot; dir=&quot;auto&quot;&gt;manually&lt;/font&gt;&lt;/div&gt;" style="edgeLabel;html=1;align=center;verticalAlign=middle;resizable=0;points=[];" parent="5c4oNbQx3Qy8F3v5Axec-20" vertex="1" connectable="0">
          <mxGeometry x="-0.2347" y="2" relative="1" as="geometry">
            <mxPoint as="offset" />
          </mxGeometry>
        </mxCell>
        <mxCell id="5c4oNbQx3Qy8F3v5Axec-23" value="Created" style="shape=rect;rounded=1;html=1;whiteSpace=wrap;align=center;" parent="1" vertex="1">
          <mxGeometry x="307" y="310" width="100" height="40" as="geometry" />
        </mxCell>
        <mxCell id="5c4oNbQx3Qy8F3v5Axec-27" value="" style="endArrow=none;html=1;rounded=0;" parent="1" edge="1">
          <mxGeometry width="50" height="50" relative="1" as="geometry">
            <mxPoint x="280" y="260" as="sourcePoint" />
            <mxPoint x="280" y="180" as="targetPoint" />
          </mxGeometry>
        </mxCell>
        <mxCell id="5c4oNbQx3Qy8F3v5Axec-28" value="" style="endArrow=none;html=1;rounded=0;" parent="1" edge="1">
          <mxGeometry width="50" height="50" relative="1" as="geometry">
            <mxPoint x="440" y="260" as="sourcePoint" />
            <mxPoint x="440" y="210" as="targetPoint" />
          </mxGeometry>
        </mxCell>
        <mxCell id="5c4oNbQx3Qy8F3v5Axec-30" value="" style="endArrow=open;endFill=1;endSize=12;html=1;rounded=0;entryX=0.5;entryY=0;entryDx=0;entryDy=0;" parent="1" target="5c4oNbQx3Qy8F3v5Axec-23" edge="1">
          <mxGeometry width="160" relative="1" as="geometry">
            <mxPoint x="357" y="260" as="sourcePoint" />
            <mxPoint x="507" y="290" as="targetPoint" />
          </mxGeometry>
        </mxCell>
        <mxCell id="5c4oNbQx3Qy8F3v5Axec-34" value="&lt;font style=&quot;vertical-align: inherit;&quot; dir=&quot;auto&quot;&gt;&lt;font style=&quot;vertical-align: inherit;&quot; dir=&quot;auto&quot;&gt;Cancelled&lt;/font&gt;&lt;/font&gt;" style="shape=rect;rounded=1;html=1;whiteSpace=wrap;align=center;" parent="1" vertex="1">
          <mxGeometry x="150" y="719" width="120" height="40" as="geometry" />
        </mxCell>
        <mxCell id="5c4oNbQx3Qy8F3v5Axec-36" value="" style="endArrow=none;html=1;rounded=0;" parent="1" edge="1">
          <mxGeometry width="50" height="50" relative="1" as="geometry">
            <mxPoint x="280" y="260" as="sourcePoint" />
            <mxPoint x="440" y="260" as="targetPoint" />
          </mxGeometry>
        </mxCell>
        <mxCell id="5c4oNbQx3Qy8F3v5Axec-38" value="" style="endArrow=open;endFill=1;endSize=12;html=1;rounded=0;entryX=0.5;entryY=0;entryDx=0;entryDy=0;" parent="1" edge="1">
          <mxGeometry width="160" relative="1" as="geometry">
            <mxPoint x="357" y="350" as="sourcePoint" />
            <mxPoint x="357" y="400" as="targetPoint" />
          </mxGeometry>
        </mxCell>
        <mxCell id="5c4oNbQx3Qy8F3v5Axec-39" value="Subscription start date" style="edgeLabel;html=1;align=center;verticalAlign=middle;resizable=0;points=[];" parent="5c4oNbQx3Qy8F3v5Axec-38" vertex="1" connectable="0">
          <mxGeometry x="0.0693" y="-2" relative="1" as="geometry">
            <mxPoint x="2" y="-6" as="offset" />
          </mxGeometry>
        </mxCell>
        <mxCell id="5c4oNbQx3Qy8F3v5Axec-35" value="Overdue" style="shape=rect;rounded=1;html=1;whiteSpace=wrap;align=center;" parent="1" vertex="1">
          <mxGeometry x="301" y="650" width="120" height="40" as="geometry" />
        </mxCell>
        <mxCell id="HchLEieYzzIFUGg8WVM2-30" value="" style="endArrow=open;endFill=1;endSize=12;html=1;rounded=0;entryX=0.5;entryY=0;entryDx=0;entryDy=0;" parent="1" edge="1">
          <mxGeometry width="160" relative="1" as="geometry">
            <mxPoint x="360.52" y="600" as="sourcePoint" />
            <mxPoint x="360.52" y="650" as="targetPoint" />
          </mxGeometry>
        </mxCell>
        <mxCell id="HchLEieYzzIFUGg8WVM2-32" value="Payment not confirmed" style="edgeLabel;html=1;align=center;verticalAlign=middle;resizable=0;points=[];" parent="HchLEieYzzIFUGg8WVM2-30" vertex="1" connectable="0">
          <mxGeometry x="-0.3314" y="-2" relative="1" as="geometry">
            <mxPoint as="offset" />
          </mxGeometry>
        </mxCell>
        <mxCell id="HchLEieYzzIFUGg8WVM2-33" value="" style="endArrow=none;html=1;rounded=0;" parent="1" edge="1">
          <mxGeometry width="50" height="50" relative="1" as="geometry">
            <mxPoint x="423" y="670" as="sourcePoint" />
            <mxPoint x="560" y="670" as="targetPoint" />
          </mxGeometry>
        </mxCell>
        <mxCell id="HchLEieYzzIFUGg8WVM2-34" value="" style="endArrow=none;html=1;rounded=0;" parent="1" edge="1">
          <mxGeometry width="50" height="50" relative="1" as="geometry">
            <mxPoint x="560" y="670" as="sourcePoint" />
            <mxPoint x="560" y="500" as="targetPoint" />
          </mxGeometry>
        </mxCell>
        <mxCell id="HchLEieYzzIFUGg8WVM2-36" value="&lt;font style=&quot;vertical-align: inherit;&quot; dir=&quot;auto&quot;&gt;Confirmed&amp;nbsp;&lt;/font&gt;&lt;div&gt;&lt;font style=&quot;vertical-align: inherit;&quot; dir=&quot;auto&quot;&gt;payment&lt;/font&gt;&lt;/div&gt;" style="edgeLabel;html=1;align=center;verticalAlign=middle;resizable=0;points=[];" parent="HchLEieYzzIFUGg8WVM2-34" vertex="1" connectable="0">
          <mxGeometry x="-0.2556" relative="1" as="geometry">
            <mxPoint as="offset" />
          </mxGeometry>
        </mxCell>
        <mxCell id="HchLEieYzzIFUGg8WVM2-35" value="" style="endArrow=open;endFill=1;endSize=12;html=1;rounded=0;entryX=1;entryY=0;entryDx=0;entryDy=120.5;entryPerimeter=0;" parent="1" edge="1">
          <mxGeometry width="160" relative="1" as="geometry">
            <mxPoint x="560" y="500" as="sourcePoint" />
            <mxPoint x="520" y="499.5" as="targetPoint" />
          </mxGeometry>
        </mxCell>
        <mxCell id="HchLEieYzzIFUGg8WVM2-37" value="" style="endArrow=none;html=1;rounded=0;" parent="1" edge="1">
          <mxGeometry width="50" height="50" relative="1" as="geometry">
            <mxPoint x="210" y="669" as="sourcePoint" />
            <mxPoint x="301" y="669" as="targetPoint" />
          </mxGeometry>
        </mxCell>
        <mxCell id="HchLEieYzzIFUGg8WVM2-39" value="" style="endArrow=open;endFill=1;endSize=12;html=1;rounded=0;entryX=0.5;entryY=0;entryDx=0;entryDy=0;" parent="1" edge="1">
          <mxGeometry width="160" relative="1" as="geometry">
            <mxPoint x="210.62" y="669" as="sourcePoint" />
            <mxPoint x="210.62" y="719" as="targetPoint" />
          </mxGeometry>
        </mxCell>
        <mxCell id="HchLEieYzzIFUGg8WVM2-40" value="&lt;font style=&quot;vertical-align: inherit;&quot; dir=&quot;auto&quot;&gt;&lt;font style=&quot;vertical-align: inherit;&quot; dir=&quot;auto&quot;&gt;&lt;font style=&quot;vertical-align: inherit;&quot; dir=&quot;auto&quot;&gt;Not confirmed&amp;nbsp;&lt;/font&gt;&lt;/font&gt;&lt;/font&gt;&lt;div&gt;&lt;font style=&quot;vertical-align: inherit;&quot; dir=&quot;auto&quot;&gt;&lt;font style=&quot;vertical-align: inherit;&quot; dir=&quot;auto&quot;&gt;&lt;font style=&quot;vertical-align: inherit;&quot; dir=&quot;auto&quot;&gt;&lt;font style=&quot;vertical-align: inherit;&quot; dir=&quot;auto&quot;&gt;&lt;font style=&quot;vertical-align: inherit;&quot; dir=&quot;auto&quot;&gt;payment&lt;/font&gt;&lt;/font&gt;&lt;/font&gt;&lt;/font&gt;&lt;/font&gt;&lt;/div&gt;" style="edgeLabel;html=1;align=center;verticalAlign=middle;resizable=0;points=[];" parent="HchLEieYzzIFUGg8WVM2-39" vertex="1" connectable="0">
          <mxGeometry x="-0.3314" y="-2" relative="1" as="geometry">
            <mxPoint as="offset" />
          </mxGeometry>
        </mxCell>
        <mxCell id="HchLEieYzzIFUGg8WVM2-41" value="" style="endArrow=none;html=1;rounded=0;" parent="1" edge="1">
          <mxGeometry width="50" height="50" relative="1" as="geometry">
            <mxPoint x="120" y="330" as="sourcePoint" />
            <mxPoint x="306" y="330" as="targetPoint" />
          </mxGeometry>
        </mxCell>
        <mxCell id="HchLEieYzzIFUGg8WVM2-42" value="" style="endArrow=open;endFill=1;endSize=12;html=1;rounded=0;entryX=0;entryY=0.5;entryDx=0;entryDy=0;" parent="1" target="5c4oNbQx3Qy8F3v5Axec-34" edge="1">
          <mxGeometry width="160" relative="1" as="geometry">
            <mxPoint x="120" y="739" as="sourcePoint" />
            <mxPoint x="100" y="570" as="targetPoint" />
          </mxGeometry>
        </mxCell>
        <mxCell id="HchLEieYzzIFUGg8WVM2-44" value="" style="endArrow=none;html=1;rounded=0;" parent="1" edge="1">
          <mxGeometry width="50" height="50" relative="1" as="geometry">
            <mxPoint x="120" y="740" as="sourcePoint" />
            <mxPoint x="120" y="330" as="targetPoint" />
          </mxGeometry>
        </mxCell>
        <mxCell id="HchLEieYzzIFUGg8WVM2-45" value="Archived" style="shape=rect;rounded=1;html=1;whiteSpace=wrap;align=center;" parent="1" vertex="1">
          <mxGeometry x="350" y="770" width="120" height="40" as="geometry" />
        </mxCell>
        <mxCell id="HchLEieYzzIFUGg8WVM2-46" value="" style="endArrow=none;html=1;rounded=0;" parent="1" edge="1">
          <mxGeometry width="50" height="50" relative="1" as="geometry">
            <mxPoint x="270" y="740" as="sourcePoint" />
            <mxPoint x="410" y="740" as="targetPoint" />
          </mxGeometry>
        </mxCell>
        <mxCell id="HchLEieYzzIFUGg8WVM2-48" value="&lt;font style=&quot;vertical-align: inherit;&quot; dir=&quot;auto&quot;&gt;Accepted&amp;nbsp;&lt;/font&gt;&lt;div&gt;&lt;font style=&quot;vertical-align: inherit;&quot; dir=&quot;auto&quot;&gt;archiving&lt;/font&gt;&lt;/div&gt;" style="edgeLabel;html=1;align=center;verticalAlign=middle;resizable=0;points=[];" parent="HchLEieYzzIFUGg8WVM2-46" vertex="1" connectable="0">
          <mxGeometry relative="1" as="geometry">
            <mxPoint as="offset" />
          </mxGeometry>
        </mxCell>
        <mxCell id="HchLEieYzzIFUGg8WVM2-47" value="" style="endArrow=open;endFill=1;endSize=12;html=1;rounded=0;" parent="1" edge="1">
          <mxGeometry width="160" relative="1" as="geometry">
            <mxPoint x="409.75" y="740" as="sourcePoint" />
            <mxPoint x="409.75" y="770" as="targetPoint" />
          </mxGeometry>
        </mxCell>
        <mxCell id="HchLEieYzzIFUGg8WVM2-49" value="" style="shape=mxgraph.sysml.actFinal;html=1;verticalLabelPosition=bottom;labelBackgroundColor=#ffffff;verticalAlign=top;" parent="1" vertex="1">
          <mxGeometry x="391" y="854" width="30" height="30" as="geometry" />
        </mxCell>
        <mxCell id="HchLEieYzzIFUGg8WVM2-51" value="" style="endArrow=none;html=1;rounded=0;" parent="1" edge="1">
          <mxGeometry width="50" height="50" relative="1" as="geometry">
            <mxPoint x="550" y="160" as="sourcePoint" />
            <mxPoint x="600" y="160" as="targetPoint" />
          </mxGeometry>
        </mxCell>
        <mxCell id="HchLEieYzzIFUGg8WVM2-53" value="" style="endArrow=none;html=1;rounded=0;" parent="1" edge="1">
          <mxGeometry width="50" height="50" relative="1" as="geometry">
            <mxPoint x="600" y="160" as="sourcePoint" />
            <mxPoint x="600" y="870" as="targetPoint" />
          </mxGeometry>
        </mxCell>
        <mxCell id="HchLEieYzzIFUGg8WVM2-55" value="Cancel creation" style="edgeLabel;html=1;align=center;verticalAlign=middle;resizable=0;points=[];" parent="HchLEieYzzIFUGg8WVM2-53" vertex="1" connectable="0">
          <mxGeometry x="-0.2152" y="-3" relative="1" as="geometry">
            <mxPoint as="offset" />
          </mxGeometry>
        </mxCell>
        <mxCell id="HchLEieYzzIFUGg8WVM2-54" value="" style="endArrow=open;endFill=1;endSize=12;html=1;rounded=0;entryX=1;entryY=0.5;entryDx=0;entryDy=0;entryPerimeter=0;" parent="1" target="HchLEieYzzIFUGg8WVM2-49" edge="1">
          <mxGeometry width="160" relative="1" as="geometry">
            <mxPoint x="600" y="870" as="sourcePoint" />
            <mxPoint x="410" y="780" as="targetPoint" />
          </mxGeometry>
        </mxCell>
        <mxCell id="HchLEieYzzIFUGg8WVM2-56" value="&lt;font style=&quot;vertical-align: inherit;&quot; dir=&quot;auto&quot;&gt;&lt;font style=&quot;vertical-align: inherit;&quot; dir=&quot;auto&quot;&gt;&lt;font style=&quot;vertical-align: inherit;&quot; dir=&quot;auto&quot;&gt;&lt;font style=&quot;vertical-align: inherit;&quot; dir=&quot;auto&quot;&gt;&lt;font style=&quot;vertical-align: inherit;&quot; dir=&quot;auto&quot;&gt;Error&lt;/font&gt;&lt;/font&gt;&lt;/font&gt;&lt;/font&gt;&lt;/font&gt;&lt;div&gt;&lt;font style=&quot;vertical-align: inherit;&quot; dir=&quot;auto&quot;&gt;&lt;font style=&quot;vertical-align: inherit;&quot; dir=&quot;auto&quot;&gt;&lt;font style=&quot;vertical-align: inherit;&quot; dir=&quot;auto&quot;&gt;&lt;font style=&quot;vertical-align: inherit;&quot; dir=&quot;auto&quot;&gt;&lt;font style=&quot;vertical-align: inherit;&quot; dir=&quot;auto&quot;&gt;integration&lt;/font&gt;&lt;/font&gt;&lt;/font&gt;&lt;/font&gt;&lt;/font&gt;&lt;/div&gt;" style="shape=rect;rounded=1;html=1;whiteSpace=wrap;align=center;" parent="1" vertex="1">
          <mxGeometry x="30" y="230" width="100" height="40" as="geometry" />
        </mxCell>
        <mxCell id="HchLEieYzzIFUGg8WVM2-57" value="" style="endArrow=none;html=1;rounded=0;" parent="1" edge="1">
          <mxGeometry width="50" height="50" relative="1" as="geometry">
            <mxPoint x="80" y="160" as="sourcePoint" />
            <mxPoint x="230" y="160" as="targetPoint" />
          </mxGeometry>
        </mxCell>
        <mxCell id="HchLEieYzzIFUGg8WVM2-58" value="" style="endArrow=open;endFill=1;endSize=12;html=1;rounded=0;" parent="1" edge="1">
          <mxGeometry width="160" relative="1" as="geometry">
            <mxPoint x="80" y="160" as="sourcePoint" />
            <mxPoint x="80" y="230" as="targetPoint" />
          </mxGeometry>
        </mxCell>
        <mxCell id="HchLEieYzzIFUGg8WVM2-59" value="Error" style="edgeLabel;html=1;align=center;verticalAlign=middle;resizable=0;points=[];" parent="HchLEieYzzIFUGg8WVM2-58" vertex="1" connectable="0">
          <mxGeometry x="-0.2347" y="2" relative="1" as="geometry">
            <mxPoint as="offset" />
          </mxGeometry>
        </mxCell>
        <mxCell id="HchLEieYzzIFUGg8WVM2-60" value="" style="endArrow=none;html=1;rounded=0;" parent="1" edge="1">
          <mxGeometry width="50" height="50" relative="1" as="geometry">
            <mxPoint x="80" y="870" as="sourcePoint" />
            <mxPoint x="80" y="270" as="targetPoint" />
          </mxGeometry>
        </mxCell>
        <mxCell id="HchLEieYzzIFUGg8WVM2-61" value="" style="endArrow=open;endFill=1;endSize=12;html=1;rounded=0;entryX=0;entryY=0.5;entryDx=0;entryDy=0;" parent="1" edge="1">
          <mxGeometry width="160" relative="1" as="geometry">
            <mxPoint x="80" y="870" as="sourcePoint" />
            <mxPoint x="391" y="870" as="targetPoint" />
          </mxGeometry>
        </mxCell>
        <mxCell id="HchLEieYzzIFUGg8WVM2-62" value="" style="endArrow=open;endFill=1;endSize=12;html=1;rounded=0;entryX=0;entryY=0.5;entryDx=0;entryDy=0;exitX=0.47;exitY=1.009;exitDx=0;exitDy=0;exitPerimeter=0;" parent="1" source="HchLEieYzzIFUGg8WVM2-45" edge="1">
          <mxGeometry width="160" relative="1" as="geometry">
            <mxPoint x="377" y="854" as="sourcePoint" />
            <mxPoint x="407" y="854" as="targetPoint" />
          </mxGeometry>
        </mxCell>
        <mxCell id="HchLEieYzzIFUGg8WVM2-63" value="" style="endArrow=none;html=1;rounded=0;" parent="1" edge="1">
          <mxGeometry width="50" height="50" relative="1" as="geometry">
            <mxPoint x="210" y="840" as="sourcePoint" />
            <mxPoint x="210" y="760" as="targetPoint" />
          </mxGeometry>
        </mxCell>
        <mxCell id="HchLEieYzzIFUGg8WVM2-64" value="" style="endArrow=none;html=1;rounded=0;" parent="1" edge="1">
          <mxGeometry width="50" height="50" relative="1" as="geometry">
            <mxPoint x="210" y="840" as="sourcePoint" />
            <mxPoint x="355" y="840" as="targetPoint" />
          </mxGeometry>
        </mxCell>
        <mxCell id="HchLEieYzzIFUGg8WVM2-65" value="" style="endArrow=open;endFill=1;endSize=12;html=1;rounded=0;entryX=0.145;entryY=0.145;entryDx=0;entryDy=0;entryPerimeter=0;" parent="1" target="HchLEieYzzIFUGg8WVM2-49" edge="1">
          <mxGeometry width="160" relative="1" as="geometry">
            <mxPoint x="355" y="840" as="sourcePoint" />
            <mxPoint x="385" y="840" as="targetPoint" />
          </mxGeometry>
        </mxCell>
        <mxCell id="iUAN1LVDrwu_EK8LdF03-56" value="" style="group" parent="1" vertex="1" connectable="0">
          <mxGeometry x="210" y="400" width="310" height="210" as="geometry" />
        </mxCell>
        <mxCell id="iUAN1LVDrwu_EK8LdF03-55" value="" style="rounded=1;whiteSpace=wrap;html=1;" parent="iUAN1LVDrwu_EK8LdF03-56" vertex="1">
          <mxGeometry y="48.10126582278481" width="310" height="151.89873417721518" as="geometry" />
        </mxCell>
        <mxCell id="iUAN1LVDrwu_EK8LdF03-54" value="" style="rounded=1;whiteSpace=wrap;html=1;" parent="iUAN1LVDrwu_EK8LdF03-56" vertex="1">
          <mxGeometry width="310" height="151.89873417721518" as="geometry" />
        </mxCell>
        <mxCell id="iUAN1LVDrwu_EK8LdF03-53" value="" style="rounded=0;whiteSpace=wrap;html=1;" parent="iUAN1LVDrwu_EK8LdF03-56" vertex="1">
          <mxGeometry y="30.379746835443036" width="310" height="151.89873417721518" as="geometry" />
        </mxCell>
        <mxCell id="iUAN1LVDrwu_EK8LdF03-58" value="" style="rounded=1;whiteSpace=wrap;html=1;strokeColor=none;" parent="iUAN1LVDrwu_EK8LdF03-56" vertex="1">
          <mxGeometry x="1" y="128" width="309" height="60" as="geometry" />
        </mxCell>
        <mxCell id="iUAN1LVDrwu_EK8LdF03-59" value="Active" style="text;html=1;align=center;verticalAlign=middle;resizable=0;points=[];autosize=1;strokeColor=none;fillColor=none;" parent="iUAN1LVDrwu_EK8LdF03-56" vertex="1">
          <mxGeometry x="124.5" y="2.3799999999999955" width="60" height="30" as="geometry" />
        </mxCell>
        <mxCell id="iUAN1LVDrwu_EK8LdF03-4" value="" style="edgeStyle=none;html=1;endArrow=open;endSize=12;rounded=0;" parent="iUAN1LVDrwu_EK8LdF03-56" edge="1">
          <mxGeometry relative="1" as="geometry">
            <mxPoint x="70" y="60" as="sourcePoint" />
            <mxPoint x="120" y="60" as="targetPoint" />
          </mxGeometry>
        </mxCell>
        <mxCell id="iUAN1LVDrwu_EK8LdF03-3" value="Paid" style="shape=rect;html=1;rounded=1;whiteSpace=wrap;align=center;" parent="iUAN1LVDrwu_EK8LdF03-56" vertex="1">
          <mxGeometry x="120" y="41" width="100" height="40" as="geometry" />
        </mxCell>
        <mxCell id="iUAN1LVDrwu_EK8LdF03-14" value="" style="endArrow=none;html=1;rounded=0;" parent="iUAN1LVDrwu_EK8LdF03-56" edge="1">
          <mxGeometry width="50" height="50" relative="1" as="geometry">
            <mxPoint x="220" y="60.500000000000014" as="sourcePoint" />
            <mxPoint x="270" y="60.500000000000014" as="targetPoint" />
          </mxGeometry>
        </mxCell>
        <mxCell id="iUAN1LVDrwu_EK8LdF03-5" value="" style="fontStyle=1;align=center;verticalAlign=middle;childLayout=stackLayout;horizontal=1;horizontalStack=0;resizeParent=1;resizeParentMax=0;resizeLast=0;marginBottom=0;rounded=1;absoluteArcSize=1;arcSize=22;" parent="iUAN1LVDrwu_EK8LdF03-56" vertex="1">
          <mxGeometry x="104" y="85" width="120" height="110" as="geometry" />
        </mxCell>
        <mxCell id="iUAN1LVDrwu_EK8LdF03-6" value="Awaiting confirmation" style="html=1;align=center;spacing=0;verticalAlign=middle;strokeColor=none;fillColor=none;whiteSpace=wrap;" parent="iUAN1LVDrwu_EK8LdF03-5" vertex="1">
          <mxGeometry width="120" height="20" as="geometry" />
        </mxCell>
        <mxCell id="iUAN1LVDrwu_EK8LdF03-7" value="" style="line;strokeWidth=0.25;fillColor=none;align=left;verticalAlign=middle;spacingTop=-1;spacingLeft=3;spacingRight=3;rotatable=0;labelPosition=right;points=[];portConstraint=eastwest;" parent="iUAN1LVDrwu_EK8LdF03-5" vertex="1">
          <mxGeometry y="20" width="120" height="8" as="geometry" />
        </mxCell>
        <mxCell id="iUAN1LVDrwu_EK8LdF03-8" value="" style="html=1;align=left;spacing=0;spacingLeft=10;verticalAlign=middle;strokeColor=none;fillColor=none;whiteSpace=wrap;" parent="iUAN1LVDrwu_EK8LdF03-5" vertex="1">
          <mxGeometry y="28" width="120" height="10" as="geometry" />
        </mxCell>
        <mxCell id="iUAN1LVDrwu_EK8LdF03-9" value="entry / Report user" style="html=1;align=center;spacing=0;spacingLeft=10;verticalAlign=middle;strokeColor=none;fillColor=none;whiteSpace=wrap;" parent="iUAN1LVDrwu_EK8LdF03-5" vertex="1">
          <mxGeometry y="38" width="120" height="12" as="geometry" />
        </mxCell>
        <mxCell id="iUAN1LVDrwu_EK8LdF03-10" value="do / Waiting for confirmation" style="html=1;align=center;spacing=0;spacingLeft=10;verticalAlign=middle;strokeColor=none;fillColor=none;whiteSpace=wrap;" parent="iUAN1LVDrwu_EK8LdF03-5" vertex="1">
          <mxGeometry y="50" width="120" height="50" as="geometry" />
        </mxCell>
        <mxCell id="iUAN1LVDrwu_EK8LdF03-11" value="exit/ Change status" style="html=1;align=center;spacingLeft=10;spacing=0;verticalAlign=middle;strokeColor=none;fillColor=none;whiteSpace=wrap;" parent="iUAN1LVDrwu_EK8LdF03-5" vertex="1">
          <mxGeometry y="100" width="120" height="10" as="geometry" />
        </mxCell>
        <mxCell id="iUAN1LVDrwu_EK8LdF03-61" value="" style="endArrow=none;html=1;rounded=0;exitX=0.872;exitY=-0.037;exitDx=0;exitDy=0;exitPerimeter=0;" parent="iUAN1LVDrwu_EK8LdF03-56" source="iUAN1LVDrwu_EK8LdF03-58" edge="1">
          <mxGeometry width="50" height="50" relative="1" as="geometry">
            <mxPoint x="220" y="110" as="sourcePoint" />
            <mxPoint x="270" y="60" as="targetPoint" />
          </mxGeometry>
        </mxCell>
        <mxCell id="iUAN1LVDrwu_EK8LdF03-62" value="Expiration date" style="edgeLabel;html=1;align=center;verticalAlign=middle;resizable=0;points=[];" parent="iUAN1LVDrwu_EK8LdF03-61" vertex="1" connectable="0">
          <mxGeometry x="-0.2019" relative="1" as="geometry">
            <mxPoint as="offset" />
          </mxGeometry>
        </mxCell>
        <mxCell id="iUAN1LVDrwu_EK8LdF03-17" value="" style="endArrow=open;endFill=1;endSize=12;html=1;rounded=0;entryX=0.5;entryY=0;entryDx=0;entryDy=0;exitX=0.871;exitY=-0.017;exitDx=0;exitDy=0;exitPerimeter=0;" parent="iUAN1LVDrwu_EK8LdF03-56" source="iUAN1LVDrwu_EK8LdF03-58" edge="1">
          <mxGeometry width="160" relative="1" as="geometry">
            <mxPoint x="270" y="130" as="sourcePoint" />
            <mxPoint x="224" y="128" as="targetPoint" />
          </mxGeometry>
        </mxCell>
        <mxCell id="iUAN1LVDrwu_EK8LdF03-63" value="" style="endArrow=open;endFill=1;endSize=12;html=1;rounded=0;entryX=0.5;entryY=0;entryDx=0;entryDy=0;exitX=0.871;exitY=-0.017;exitDx=0;exitDy=0;exitPerimeter=0;" parent="iUAN1LVDrwu_EK8LdF03-56" edge="1">
          <mxGeometry width="160" relative="1" as="geometry">
            <mxPoint x="104" y="130.5" as="sourcePoint" />
            <mxPoint x="58" y="131.5" as="targetPoint" />
          </mxGeometry>
        </mxCell>
        <mxCell id="iUAN1LVDrwu_EK8LdF03-13" value="" style="shape=mxgraph.sysml.actFinal;html=1;verticalLabelPosition=bottom;labelBackgroundColor=#ffffff;verticalAlign=top;" parent="iUAN1LVDrwu_EK8LdF03-56" vertex="1">
          <mxGeometry x="30" y="117.89999999999998" width="30" height="30" as="geometry" />
        </mxCell>
        <mxCell id="iUAN1LVDrwu_EK8LdF03-60" value="" style="shape=ellipse;html=1;fillColor=strokeColor;fontSize=18;fontColor=#ffffff;" parent="1" vertex="1">
          <mxGeometry x="249" y="445" width="30" height="30" as="geometry" />
        </mxCell>
        <mxCell id="AEpo5gCILv1UGPM5ssFg-2" value="" style="endArrow=none;html=1;rounded=0;" parent="1" edge="1">
          <mxGeometry width="50" height="50" relative="1" as="geometry">
            <mxPoint x="160" y="500" as="sourcePoint" />
            <mxPoint x="210" y="500" as="targetPoint" />
          </mxGeometry>
        </mxCell>
        <mxCell id="AEpo5gCILv1UGPM5ssFg-3" value="" style="endArrow=none;html=1;rounded=0;" parent="1" edge="1">
          <mxGeometry width="50" height="50" relative="1" as="geometry">
            <mxPoint x="160" y="500" as="sourcePoint" />
            <mxPoint x="160" y="380" as="targetPoint" />
          </mxGeometry>
        </mxCell>
        <mxCell id="AEpo5gCILv1UGPM5ssFg-4" value="" style="endArrow=none;html=1;rounded=0;" parent="1" edge="1">
          <mxGeometry width="50" height="50" relative="1" as="geometry">
            <mxPoint x="357" y="380" as="sourcePoint" />
            <mxPoint x="160" y="380" as="targetPoint" />
          </mxGeometry>
        </mxCell>
      </root>
    </mxGraphModel>
  </diagram>
</mxfile>
